{"accessors":[{"bufferView":0,"byteOffset":0,"componentType":5126,"count":4847,"max":[-4.0991621017456055,5.177676200866699,115.6604995727539],"min":[-8.119001388549805,0.34411948919296265,107.66410064697266],"type":"VEC3"},{"bufferView":1,"byteOffset":0,"componentType":5125,"count":29070,"type":"SCALAR"},{"bufferView":2,"byteOffset":0,"componentType":5126,"count":307152,"max":[-4.105223178863525,5.146387577056885,115.64652252197266],"min":[-8.118645668029785,0.3725145161151886,107.72295379638672],"type":"VEC3"},{"bufferView":3,"byteOffset":0,"componentType":5125,"count":844668,"type":"SCALAR"}],"asset":{"generator":"VTK","version":"2.0"},"bufferViews":[{"buffer":0,"byteLength":58164,"byteOffset":0,"target":34962},{"buffer":1,"byteLength":116280,"byteOffset":0,"target":34963},{"buffer":2,"byteLength":3685824,"byteOffset":0,"target":34962},{"buffer":3,"byteLength":3378672,"byteOffset":0,"target":34963}],"buffers":[{"byteLength":58164,"uri":"buffer822478.bin"},{"byteLength":116280,"uri":"buffer157338369.bin"},{"byteLength":3685824,"uri":"buffer46774990.bin"},{"byteLength":3378672,"uri":"buffer157338713.bin"}],"cameras":[{"orthographic":{"xmag":5.0666574195731835,"ymag":5.024610470033157,"zfar":28.044805680856935,"znear":12.593752990568927},"type":"orthographic"}],"materials":[{"pbrMetallicRoughness":{"baseColorFactor":[1.0,1.0,1.0,0.5],"metallicFactor":0.0,"roughnessFactor":1.0}},{"pbrMetallicRoughness":{"baseColorFactor":[0.6666666865348816,0.0,0.0,1.0],"metallicFactor":0.0,"roughnessFactor":1.0}}],"meshes":[{"name":"mesh0","primitives":[{"attributes":{"POSITION":0},"indices":1,"material":0,"mode":4}]},{"name":"mesh1","primitives":[{"attributes":{"POSITION":2},"indices":3,"material":1,"mode":4}]}],"nodes":[{"mesh":0,"name":"mesh0"},{"mesh":1,"name":"mesh1"},{"camera":0,"matrix":[-0.42856666721660164,0.8475647653909594,-0.3129929395667294,-0.0,-0.23899065011696896,0.2277377681045877,0.9439380160452322,-0.0,0.8713289166024062,0.4793427557046302,0.10495923802109126,-0.0,10.599691742609522,12.779156478038109,112.16158351204905,1.0],"name":"Camera Node"},{"children":[0,1,2],"name":"Renderer Node"}],"scene":0,"scenes":[{"name":"Layer 0","nodes":[3]}]}