{"accessors":[{"bufferView":0,"byteOffset":0,"componentType":5126,"count":307152,"max":[-4.105223178863525,5.146387577056885,115.64652252197266],"min":[-8.118645668029785,0.3725145161151886,107.72295379638672],"type":"VEC3"},{"bufferView":1,"byteOffset":0,"componentType":5125,"count":844668,"type":"SCALAR"},{"bufferView":2,"byteOffset":0,"componentType":5126,"count":4914,"max":[-4.0991621017456055,5.177676200866699,115.6604995727539],"min":[-8.119001388549805,0.34411948919296265,107.66410064697266],"type":"VEC3"},{"bufferView":3,"byteOffset":0,"componentType":5125,"count":29070,"type":"SCALAR"}],"asset":{"generator":"VTK","version":"2.0"},"bufferViews":[{"buffer":0,"byteLength":3685824,"byteOffset":0,"target":34962},{"buffer":1,"byteLength":3378672,"byteOffset":0,"target":34963},{"buffer":2,"byteLength":58968,"byteOffset":0,"target":34962},{"buffer":3,"byteLength":116280,"byteOffset":0,"target":34963}],"buffers":[{"byteLength":3685824,"uri":"buffer46774990.bin"},{"byteLength":3378672,"uri":"buffer169363657.bin"},{"byteLength":58968,"uri":"buffer166570011.bin"},{"byteLength":116280,"uri":"buffer169364023.bin"}],"cameras":[{"orthographic":{"xmag":5.0666574195731835,"ymag":5.024610470033157,"zfar":30.886979631638578,"znear":10.381638076185132},"type":"orthographic"}],"materials":[{"pbrMetallicRoughness":{"baseColorFactor":[0.6666666865348816,0.0,0.0,1.0],"metallicFactor":0.0,"roughnessFactor":1.0}},{"pbrMetallicRoughness":{"baseColorFactor":[1.0,1.0,1.0,0.38],"metallicFactor":0.0,"roughnessFactor":1.0}}],"meshes":[{"name":"mesh0","primitives":[{"attributes":{"POSITION":0},"indices":1,"material":0,"mode":4}]},{"name":"mesh1","primitives":[{"attributes":{"POSITION":2},"indices":3,"material":1,"mode":4}]}],"nodes":[{"mesh":0,"name":"mesh0"},{"mesh":1,"name":"mesh1"},{"camera":0,"matrix":[-0.0659364660151225,-0.9976517461602109,-0.018530402934599014,-0.0,0.9389472716497048,-0.06831992974669579,0.3372097392736185,0.0,-0.3376838810352248,0.004835347235571836,0.9412471598395926,-0.0,-13.936502594830076,1.7718659347948114,129.51146211724802,1.0],"name":"Camera Node"},{"children":[0,1,2],"name":"Renderer Node"}],"scene":0,"scenes":[{"name":"Layer 0","nodes":[3]}]}