{"accessors":[{"bufferView":0,"byteOffset":0,"componentType":5126,"count":4851,"max":[-4.0991621017456055,5.177676200866699,115.6604995727539],"min":[-8.119001388549805,0.34411948919296265,107.66410064697266],"type":"VEC3"},{"bufferView":1,"byteOffset":0,"componentType":5126,"count":4851,"normalized":false,"type":"VEC2"},{"bufferView":2,"byteOffset":0,"componentType":5125,"count":29070,"type":"SCALAR"},{"bufferView":4,"byteOffset":0,"componentType":5126,"count":153576,"max":[-4.10667610168457,5.146387577056885,115.64652252197266],"min":[-8.118645668029785,0.37317630648612976,107.72295379638672],"type":"VEC3"},{"bufferView":5,"byteOffset":0,"componentType":5125,"count":383940,"type":"SCALAR"}],"asset":{"generator":"VTK","version":"2.0"},"bufferViews":[{"buffer":0,"byteLength":58212,"byteOffset":0,"target":34962},{"buffer":1,"byteLength":38808,"byteOffset":0,"target":34962},{"buffer":2,"byteLength":116280,"byteOffset":0,"target":34963},{"buffer":3,"byteLength":135,"byteOffset":0,"target":34962},{"buffer":4,"byteLength":1842912,"byteOffset":0,"target":34962},{"buffer":5,"byteLength":1535760,"byteOffset":0,"target":34963}],"buffers":[{"byteLength":58212,"uri":"buffer12674119.bin"},{"byteLength":38808,"uri":"buffer48414613.bin"},{"byteLength":116280,"uri":"buffer48432436.bin"},{"byteLength":135,"uri":"buffer48433038.bin"},{"byteLength":1842912,"uri":"buffer6169721.bin"},{"byteLength":1535760,"uri":"buffer48433403.bin"}],"cameras":[{"perspective":{"aspectRatio":1.2426778242677825,"yfov":0.5235987755982988,"zfar":28.834002008427873,"znear":11.972121848425955},"type":"perspective"}],"images":[{"bufferView":3,"mimeType":"image/png"}],"materials":[{"pbrMetallicRoughness":{"baseColorFactor":[1.0,1.0,1.0,1.0],"baseColorTexture":{"index":0,"texCoord":0},"metallicFactor":0.89,"roughnessFactor":0.05319148936170213}},{"pbrMetallicRoughness":{"baseColorFactor":[0.6666666865348816,0.0,0.0,1.0],"metallicFactor":0.0,"roughnessFactor":1.0}}],"meshes":[{"name":"mesh0","primitives":[{"attributes":{"POSITION":0,"TEXCOORD_0":1},"indices":2,"material":0,"mode":4}]},{"name":"mesh1","primitives":[{"attributes":{"POSITION":3},"indices":4,"material":1,"mode":4}]}],"nodes":[{"mesh":0,"name":"mesh0"},{"mesh":1,"name":"mesh1"},{"camera":0,"matrix":[-0.8663779958960999,0.4122538798569,-0.28184376304965547,0.0,0.18408507293502255,-0.260992774601235,-0.947626222478281,0.0,-0.46422177259319175,-0.8728857371666017,0.150228611461177,0.0,-15.126695094539375,-14.180985691742203,114.60368123803794,1.0],"name":"Camera Node"},{"children":[0,1,2],"name":"Renderer Node"}],"samplers":[{"magFilter":9728,"minFilter":9728,"wrapS":33071,"wrapT":33071}],"scene":0,"scenes":[{"name":"Layer 0","nodes":[3]}],"textures":[{"sampler":0,"source":0}]}