{"accessors":[{"bufferView":0,"byteOffset":0,"componentType":5126,"count":307152,"max":[-4.105223178863525,5.146387577056885,115.64652252197266],"min":[-8.118645668029785,0.3725145161151886,107.72295379638672],"type":"VEC3"},{"bufferView":1,"byteOffset":0,"componentType":5125,"count":844668,"type":"SCALAR"},{"bufferView":2,"byteOffset":0,"componentType":5126,"count":4847,"max":[-4.0991621017456055,5.177676200866699,115.6604995727539],"min":[-8.119001388549805,0.34411948919296265,107.66410064697266],"type":"VEC3"},{"bufferView":3,"byteOffset":0,"componentType":5121,"count":9690,"normalized":true,"type":"VEC4"},{"bufferView":4,"byteOffset":0,"componentType":5125,"count":29070,"type":"SCALAR"}],"asset":{"generator":"VTK","version":"2.0"},"bufferViews":[{"buffer":0,"byteLength":3685824,"byteOffset":0,"target":34962},{"buffer":1,"byteLength":3378672,"byteOffset":0,"target":34963},{"buffer":2,"byteLength":58164,"byteOffset":0,"target":34962},{"buffer":3,"byteLength":38760,"byteOffset":0,"target":34962},{"buffer":4,"byteLength":116280,"byteOffset":0,"target":34963}],"buffers":[{"byteLength":3685824,"uri":"buffer46774990.bin"},{"byteLength":3378672,"uri":"buffer162976377.bin"},{"byteLength":58164,"uri":"buffer822478.bin"},{"byteLength":38760,"uri":"buffer162976743.bin"},{"byteLength":116280,"uri":"buffer162976744.bin"}],"cameras":[{"orthographic":{"xmag":5.0666574195731835,"ymag":5.024610470033157,"zfar":29.379744338041554,"znear":11.546178658434298},"type":"orthographic"}],"materials":[{"pbrMetallicRoughness":{"baseColorFactor":[0.6666666865348816,0.0,0.0,1.0],"metallicFactor":0.0,"roughnessFactor":1.0}},{"pbrMetallicRoughness":{"baseColorFactor":[1.0,1.0,1.0,1.0],"metallicFactor":0.0,"roughnessFactor":1.0}}],"meshes":[{"name":"mesh0","primitives":[{"attributes":{"POSITION":0},"indices":1,"material":0,"mode":4}]},{"name":"mesh1","primitives":[{"attributes":{"COLOR_0":3,"POSITION":2},"indices":4,"material":1,"mode":4}]}],"nodes":[{"mesh":0,"name":"mesh0"},{"mesh":1,"name":"mesh1"},{"camera":0,"matrix":[-0.7888655615792,0.46149546129124674,-0.4058485739311062,-0.0,-0.46473255992799306,-0.015839701383883544,0.8853094100950489,-0.0,0.4021377543791525,0.8870011516721097,0.22696736204847529,-0.0,1.35305290705757,20.547600013318778,114.49522008955178,1.0],"name":"Camera Node"},{"children":[0,1,2],"name":"Renderer Node"}],"scene":0,"scenes":[{"name":"Layer 0","nodes":[3]}]}