{"accessors":[{"bufferView":0,"byteOffset":0,"componentType":5126,"count":4847,"max":[-4.0991621017456055,5.177676200866699,115.6604995727539],"min":[-8.119001388549805,0.34411948919296265,107.66410064697266],"type":"VEC3"},{"bufferView":1,"byteOffset":0,"componentType":5125,"count":29070,"type":"SCALAR"},{"bufferView":2,"byteOffset":0,"componentType":5126,"count":307152,"max":[-4.105223178863525,5.146387577056885,115.64652252197266],"min":[-8.118645668029785,0.3725145161151886,107.72295379638672],"type":"VEC3"},{"bufferView":3,"byteOffset":0,"componentType":5125,"count":844668,"type":"SCALAR"}],"asset":{"generator":"VTK","version":"2.0"},"bufferViews":[{"buffer":0,"byteLength":58164,"byteOffset":0,"target":34962},{"buffer":1,"byteLength":116280,"byteOffset":0,"target":34963},{"buffer":2,"byteLength":3685824,"byteOffset":0,"target":34962},{"buffer":3,"byteLength":3378672,"byteOffset":0,"target":34963}],"buffers":[{"byteLength":58164,"uri":"buffer822478.bin"},{"byteLength":116280,"uri":"buffer147676479.bin"},{"byteLength":3685824,"uri":"buffer46774990.bin"},{"byteLength":3378672,"uri":"buffer147676846.bin"}],"cameras":[{"orthographic":{"xmag":5.0666574195731835,"ymag":5.024610470033157,"zfar":29.057491459013118,"znear":11.795685355776575},"type":"orthographic"}],"materials":[{"pbrMetallicRoughness":{"baseColorFactor":[1.0,1.0,1.0,0.7],"metallicFactor":0.0,"roughnessFactor":1.0}},{"pbrMetallicRoughness":{"baseColorFactor":[0.6666666865348816,0.0,0.0,1.0],"metallicFactor":0.0,"roughnessFactor":1.0}}],"meshes":[{"name":"mesh0","primitives":[{"attributes":{"POSITION":0},"indices":1,"material":0,"mode":4}]},{"name":"mesh1","primitives":[{"attributes":{"POSITION":2},"indices":3,"material":1,"mode":4}]}],"nodes":[{"mesh":0,"name":"mesh0"},{"mesh":1,"name":"mesh1"},{"camera":0,"matrix":[-0.9360613453653962,0.2882283845547315,-0.2017760046430044,0.0,0.12463722356802243,-0.26465531403395826,-0.9562547397293469,0.0,-0.3290208507283067,-0.9202618991844421,0.21180962370833048,0.0,-13.760702537665987,-14.426647059899548,116.77260035394742,1.0],"name":"Camera Node"},{"children":[0,1,2],"name":"Renderer Node"}],"scene":0,"scenes":[{"name":"Layer 0","nodes":[3]}]}