{"accessors":[{"bufferView":0,"byteOffset":0,"componentType":5126,"count":29070,"max":[-4.0991621017456055,5.177676200866699,115.6604995727539],"min":[-8.119001388549805,0.34411948919296265,107.66410064697266],"type":"VEC3"},{"bufferView":1,"byteOffset":0,"componentType":5121,"count":9690,"normalized":true,"type":"VEC4"},{"bufferView":2,"byteOffset":0,"componentType":5125,"count":29070,"type":"SCALAR"},{"bufferView":3,"byteOffset":0,"componentType":5126,"count":153576,"max":[-4.10667610168457,5.146387577056885,115.64652252197266],"min":[-8.118645668029785,0.37317630648612976,107.72295379638672],"type":"VEC3"},{"bufferView":4,"byteOffset":0,"componentType":5125,"count":383940,"type":"SCALAR"}],"asset":{"generator":"VTK","version":"2.0"},"bufferViews":[{"buffer":0,"byteLength":348840,"byteOffset":0,"target":34962},{"buffer":1,"byteLength":38760,"byteOffset":0,"target":34962},{"buffer":2,"byteLength":116280,"byteOffset":0,"target":34963},{"buffer":3,"byteLength":1842912,"byteOffset":0,"target":34962},{"buffer":4,"byteLength":1535760,"byteOffset":0,"target":34963}],"buffers":[{"byteLength":348840,"uri":"buffer58373986.bin"},{"byteLength":38760,"uri":"buffer60416118.bin"},{"byteLength":116280,"uri":"buffer60416119.bin"},{"byteLength":1842912,"uri":"buffer6169721.bin"},{"byteLength":1535760,"uri":"buffer60416488.bin"}],"cameras":[{"perspective":{"aspectRatio":1.2426778242677825,"yfov":0.5235987755982988,"zfar":48.157030245933484,"znear":25.886812973553795},"type":"perspective"}],"materials":[{"pbrMetallicRoughness":{"baseColorFactor":[1.0,1.0,1.0,1.0],"metallicFactor":0.0,"roughnessFactor":1.0}},{"pbrMetallicRoughness":{"baseColorFactor":[0.6666666865348816,0.0,0.0,1.0],"metallicFactor":0.0,"roughnessFactor":1.0}}],"meshes":[{"name":"mesh0","primitives":[{"attributes":{"COLOR_0":1,"POSITION":0},"indices":2,"material":0,"mode":4}]},{"name":"mesh1","primitives":[{"attributes":{"POSITION":3},"indices":4,"material":1,"mode":4}]}],"nodes":[{"mesh":0,"name":"mesh0"},{"mesh":1,"name":"mesh1"},{"camera":0,"matrix":[-0.2170890006129068,0.646678404439821,0.7312177562423222,-0.0,0.9243157763606424,-0.10467684414776816,0.36699196703754444,0.0,0.313867346794329,0.7555460274069546,-0.575010859972103,-0.0,4.921308910346001,27.998843823745165,88.745319776398,1.0],"name":"Camera Node"},{"children":[0,1,2],"name":"Renderer Node"}],"scene":0,"scenes":[{"name":"Layer 0","nodes":[3]}]}