{"accessors":[{"bufferView":0,"byteOffset":0,"componentType":5126,"count":19960,"max":[16.61412811279297,16.921241760253906,16.591440200805664],"min":[-16.74127197265625,-16.60041618347168,-16.701181411743164],"type":"VEC3"},{"bufferView":1,"byteOffset":0,"componentType":5126,"count":19960,"normalized":false,"type":"VEC2"},{"bufferView":2,"byteOffset":0,"componentType":5125,"count":53892,"type":"SCALAR"}],"asset":{"generator":"VTK","version":"2.0"},"bufferViews":[{"buffer":0,"byteLength":239520,"byteOffset":0,"target":34962},{"buffer":1,"byteLength":159680,"byteOffset":0,"target":34962},{"buffer":2,"byteLength":215568,"byteOffset":0,"target":34963},{"buffer":3,"byteLength":321,"byteOffset":0,"target":34962}],"buffers":[{"byteLength":239520,"uri":"data:application/octet-stream;base64,"},{"byteLength":159680,"uri":"data:application/octet-stream;base64,"},{"byteLength":215568,"uri":"data:application/octet-stream;base64,"},{"byteLength":321,"uri":"data:application/octet-stream;base64,"}],"cameras":[{"perspective":{"aspectRatio":1.2426778242677825,"yfov":0.5235987755982988,"zfar":139.91831817945808,"znear":25.346336027191903},"type":"perspective"}],"images":[{"bufferView":3,"mimeType":"image/png"}],"materials":[{"pbrMetallicRoughness":{"baseColorFactor":[1.0,1.0,1.0,1.0],"baseColorTexture":{"index":0,"texCoord":0},"metallicFactor":0.0,"roughnessFactor":1.0}}],"meshes":[{"name":"mesh0","primitives":[{"attributes":{"POSITION":0,"TEXCOORD_0":1},"indices":2,"material":0,"mode":4}]}],"nodes":[{"mesh":0,"name":"mesh0"},{"camera":0,"matrix":[0.808069914825092,0.03874969189168527,0.5878107468674488,-0.0,0.03676416967168211,0.9925718006197684,-0.11597248140305776,0.0,-0.5879382693641573,0.11532424720209652,0.8006428101371732,-0.0,-48.084513122129415,11.586662789831987,57.94446929325288,1.0],"name":"Camera Node"},{"children":[0,1],"name":"Renderer Node"}],"samplers":[{"magFilter":9728,"minFilter":9728,"wrapS":33071,"wrapT":33071}],"scene":0,"scenes":[{"name":"Layer 0","nodes":[2]}],"textures":[{"sampler":0,"source":0}]}